<?xml version="1.0" encoding="utf-8"?>
<!-- Generator: Adobe Illustrator 26.2.1, SVG Export Plug-In . SVG Version: 6.00 Build 0)  -->
<svg version="1.1" id="Laag_1" xmlns="http://www.w3.org/2000/svg" xmlns:xlink="http://www.w3.org/1999/xlink" x="0px" y="0px"
	 viewBox="0 0 448 512" style="enable-background:new 0 0 448 512;" xml:space="preserve">
<style type="text/css">
	.st0{opacity:0.89;}
</style>
<path class="st0" d="M316.1,440.3v38.4c0,12.7-10.3,23-23,23H32c-12.7,0-23-10.3-23-23V125.5c0-12.7,10.3-23,23-23h69.1v284.1
	c0,29.6,24.1,53.8,53.7,53.8H316.1z M316.1,110.1V10.3H154.9c-12.7,0-23,10.3-23,23v353.2c0,12.7,10.3,23,23,23H416
	c12.7,0,23-10.3,23-23V133.1h-99.8C326.5,133.1,316.1,122.8,316.1,110.1z M432.3,80.3L369,17c-4.3-4.3-10.2-6.7-16.3-6.7h-5.8v92.1
	H439v-5.8C439,90.5,436.6,84.6,432.3,80.3z"/>
</svg>
