<?xml version="1.0" encoding="utf-8"?>
<!-- Generator: Adobe Illustrator 26.2.1, SVG Export Plug-In . SVG Version: 6.00 Build 0)  -->
<svg version="1.1" id="Capa_1" xmlns="http://www.w3.org/2000/svg" xmlns:xlink="http://www.w3.org/1999/xlink" x="0px" y="0px"
	 viewBox="0 0 490.3 490.3" style="enable-background:new 0 0 490.3 490.3;" xml:space="preserve">
<style type="text/css">
	.st0{opacity:0.69;}
	.st1{fill:#FFFFFF;}
</style>
<g class="st0">
	<path class="st1" d="M310.4,156.7L90.2,376.9c-6.4,6.4-6.4,16.8,0,23.2c3.1,3.1,7.3,4.8,11.5,4.8c4.2,0,8.4-1.6,11.5-4.8
		l220.2-220.2c6.4-6.4,6.4-16.8,0-23.2C327.2,150.3,316.8,150.3,310.4,156.7z"/>
	<path class="st1" d="M422.6,194.3c4.2,0,8.4-1.6,11.5-4.8l24-24c27.8-27.8,27.8-72.9,0-100.6l-32.8-32.8
		c-13.5-13.5-31.3-20.8-50.3-20.8s-36.8,7.4-50.3,20.8l-24,24c-6.4,6.4-6.4,16.8,0,23.2l110.3,110.3
		C414.2,192.7,418.4,194.3,422.6,194.3z M348,55.1c7.3-7.3,16.9-11.3,27.2-11.3c10.2,0,19.9,4,27.2,11.3L435.2,88
		c15,15,15,39.3,0,54.3l-12.6,12.6l-87.2-87.2L348,55.1z"/>
	<path class="st1" d="M166.6,457l232.3-232.3c6.4-6.4,6.4-16.8,0-23.2c-6.4-6.4-16.8-6.4-23.2,0L147.5,430L46.7,443.5l13.5-100.7
		l218.1-218.1c6.4-6.4,6.4-16.8,0-23.2c-6.4-6.4-16.8-6.4-23.2,0L33.3,323.6c-2.6,2.6-4.2,5.8-4.7,9.3L11.4,460.4
		c-0.7,5.1,1,10.1,4.7,13.7c3.1,3.1,7.3,4.8,11.5,4.8c0.8,0,1.4-0.1,2.2-0.2l127.5-17.2C160.8,461.2,164.2,459.6,166.6,457z"/>
</g>
</svg>
