<?xml version="1.0" encoding="utf-8"?>
<!-- Generator: Adobe Illustrator 26.2.1, SVG Export Plug-In . SVG Version: 6.00 Build 0)  -->
<svg version="1.1"
	 id="svg3741" inkscape:version="0.48.3.1 r9886" sodipodi:docname="trash_font_awesome.svg" xmlns:cc="http://creativecommons.org/ns#" xmlns:dc="http://purl.org/dc/elements/1.1/" xmlns:inkscape="http://www.inkscape.org/namespaces/inkscape" xmlns:rdf="http://www.w3.org/1999/02/22-rdf-syntax-ns#" xmlns:sodipodi="http://sodipodi.sourceforge.net/DTD/sodipodi-0.dtd" xmlns:svg="http://www.w3.org/2000/svg"
	 xmlns="http://www.w3.org/2000/svg" xmlns:xlink="http://www.w3.org/1999/xlink" x="0px" y="0px" viewBox="0 0 516 557.5"
	 style="enable-background:new 0 0 516 557.5;" xml:space="preserve">
<style type="text/css">
	.st0{opacity:0.69;fill:#FFFFFF;}
</style>
<path id="path3745" inkscape:connector-curvature="0" class="st0" d="M191.6,223.4v199.3c0,3.2-1,5.9-3.1,8s-4.7,3.1-8,3.1h-22.1
	c-3.2,0-5.9-1-8-3.1s-3.1-4.7-3.1-8V223.4c0-3.2,1-5.9,3.1-8s4.7-3.1,8-3.1h22.1c3.2,0,5.9,1,8,3.1S191.6,220.2,191.6,223.4z
	 M280.1,223.4v199.3c0,3.2-1,5.9-3.1,8s-4.7,3.1-8,3.1h-22.1c-3.2,0-5.9-1-8-3.1s-3.1-4.7-3.1-8V223.4c0-3.2,1-5.9,3.1-8
	s4.7-3.1,8-3.1h22.1c3.2,0,5.9,1,8,3.1S280.1,220.2,280.1,223.4z M368.7,223.4v199.3c0,3.2-1,5.9-3.1,8s-4.7,3.1-8,3.1h-22.1
	c-3.2,0-5.9-1-8-3.1s-3.1-4.7-3.1-8V223.4c0-3.2,1-5.9,3.1-8s4.7-3.1,8-3.1h22.1c3.2,0,5.9,1,8,3.1S368.7,220.2,368.7,223.4z
	 M413,473.9V145.9H103v328.1c0,5.1,0.8,9.7,2.4,14s3.3,7.4,5,9.3c1.7,2,2.9,2.9,3.6,2.9H402c0.7,0,1.9-1,3.6-2.9
	c1.7-2,3.4-5.1,5-9.3S413,479,413,473.9z M180.5,101.6h155l-16.6-40.5c-1.6-2.1-3.6-3.3-5.9-3.8H203.3c-2.3,0.5-4.3,1.7-5.9,3.8
	L180.5,101.6z M501.6,112.7v22.1c0,3.2-1,5.9-3.1,8s-4.7,3.1-8,3.1h-33.2v328.1c0,19.1-5.4,35.7-16.3,49.7s-23.9,20.9-39.1,20.9H114
	c-15.2,0-28.3-6.7-39.1-20.2c-10.8-13.5-16.3-29.8-16.3-49V145.9H25.5c-3.2,0-5.9-1-8-3.1s-3.1-4.7-3.1-8v-22.1c0-3.2,1-5.9,3.1-8
	s4.7-3.1,8-3.1h106.9l24.2-57.8c3.5-8.5,9.7-15.8,18.7-21.8c9-6,18.1-9,27.3-9h110.7c9.2,0,18.3,3,27.3,9s15.2,13.3,18.7,21.8
	l24.2,57.8h106.9c3.2,0,5.9,1,8,3.1S501.6,109.4,501.6,112.7z"/>
</svg>
